<svg clip-rule="evenodd" fill-rule="evenodd" height="512" stroke-linejoin="round" stroke-miterlimit="2" viewBox="0 0 24 24" width="512" xmlns="http://www.w3.org/2000/svg"><g id="Icon"><circle cx="12" cy="10.063" r="2.75"/><path d="m8.03 16.468 1.343-1.343c.2-.2.472-.313.755-.313h3.744c.283 0 .555.113.755.313 0 0 1.343 1.343 1.343 1.343.292.293.768.293 1.06 0 .293-.293.293-.768 0-1.061l-1.342-1.342c-.482-.482-1.135-.753-1.816-.752h-3.744c-.681-.001-1.334.27-1.816.752l-1.342 1.342c-.293.293-.293.768 0 1.061.292.293.768.293 1.06 0z"/><path d="m17.443 17.739c-3.172 3.172-8.321 3.172-11.493 0-1.943-1.943-2.695-4.628-2.258-7.146.071-.408-.203-.796-.611-.867s-.796.203-.867.611c-.518 2.982.374 6.162 2.675 8.463 3.757 3.757 9.858 3.757 13.615 0 .292-.293.292-.768 0-1.061-.293-.293-.768-.293-1.061 0z"/><path d="m6.332 5.887c3.191-2.808 8.064-2.688 11.111.359 1.751 1.751 2.535 4.106 2.353 6.397-.033.413.275.775.688.807.412.033.774-.275.807-.688.216-2.714-.713-5.502-2.787-7.577-3.61-3.609-9.383-3.75-13.163-.424-.31.274-.341.748-.067 1.059.273.311.748.341 1.058.067z"/><path d="m21.722 11.793-1.158 1.159s-1.159-1.159-1.159-1.159c-.292-.293-.768-.293-1.06 0-.293.293-.293.768 0 1.061l1.688 1.689c.293.293.768.293 1.061 0l1.689-1.689c.293-.293.293-.768 0-1.061s-.768-.293-1.061 0z"/><path d="m1.783 11.554 1.158-1.158s1.159 1.158 1.159 1.158c.293.293.768.293 1.061 0 .292-.292.292-.767 0-1.06l-1.689-1.689c-.293-.293-.768-.293-1.061 0l-1.689 1.689c-.292.293-.292.768 0 1.06.293.293.768.293 1.061 0z"/></g></svg>