<svg clip-rule="evenodd" fill-rule="evenodd" stroke-linejoin="round" stroke-miterlimit="2" viewBox="0 0 48 48" xmlns="http://www.w3.org/2000/svg"><g transform="translate(-336 -240)"><g id="Icon"><path d="m360 249.876c-1.497-2.895-4.519-4.876-8-4.876-4.967 0-9 4.033-9 9s4.033 9 9 9c3.481 0 6.503-1.981 8-4.876 1.497 2.896 4.519 4.876 8 4.876 4.967 0 9-4.033 9-9s-4.033-9-9-9c-3.481 0-6.503 1.981-8 4.876zm8-2.876c3.863 0 7 3.137 7 7s-3.137 7-7 7-7-3.137-7-7 3.137-7 7-7zm-16 0c3.863 0 7 3.137 7 7s-3.137 7-7 7-7-3.137-7-7 3.137-7 7-7z"/><path d="m360 265.75c1.24-.484 2.589-.75 4-.75h8c6.075 0 11 4.925 11 11v4c0 1.657-1.343 3-3 3h-40c-1.657 0-3-1.343-3-3v-4c0-6.075 4.925-11 11-11h8c1.411 0 2.76.266 4 .75zm5 10.25v4c0 .552-.448 1-1 1h-24c-.552 0-1-.448-1-1v-4c0-4.971 4.029-9 9-9h8c4.971 0 9 4.029 9 9zm1.829 5h13.171c.552 0 1-.448 1-1v-4c0-4.971-4.029-9-9-9h-8c-.511 0-1.013.043-1.501.125 2.729 2.001 4.501 5.231 4.501 8.875v4c0 .351-.06.687-.171 1z"/></g></g></svg>